{"title":"The Hangover Part II 2011 DVDRip XviD-LTW-[BTARENA.org].avi","uid":6754332,"size":1573349376,"categoryP":"video","categoryS":"movies","magnet":"?xt=urn:btih:a054b5fe58e0cf36f9c7d52d6382719efcda2a0a&amp;dn=The+Hangover+Part+II+2011+DVDRip+XviD-LTW-%5BBTARENA.org%5D.avi&amp;tr=udp%3A%2F%2Ftracker.openbittorrent.com%3A80&amp;tr=udp%3A%2F%2Fopen.demonii.com%3A1337&amp;tr=udp%3A%2F%2Ftracker.coppersurfer.tk%3A6969&amp;tr=udp%3A%2F%2Fexodus.desync.com%3A6969","seeders":1,"leechers":0,"uploader":"AiTB","files":-1,"time":1318987290,"description":"info, sample..\n &lt;a href=&quot;\nhttp://www.btarena.org/movies/dvdrip/the-hangover-part-ii-2011-dvdrip-xvid-ltw&quot; rel=&quot;nofollow&quot; target=&quot;_NEW&quot;&gt;\nhttp://www.btarena.org/movies/dvdrip/the-hangover-part-ii-2011-dvdrip-xvid-ltw&lt;/a&gt;\n\n\nThe Hangover Part II (2011)\nGenre: Comedy \nRatings: 6.9/10 from 59,501 users \n\n\nTwo years after the bachelor party in Las Vegas, Phil, Stu, Alan, and Doug jet to Thailand for Stu\\\\\\'s wedding. Stu\\\\\\'s plan for a subdued pre-wedding brunch, however, goes seriously awry. \n\n\nVideo\nID                               : 0\nFormat                           : MPEG-4 Visual\nFormat profile                   : Advanced Simple@L5\nFormat settings, BVOP            : 1\nFormat settings, QPel            : No\nFormat settings, GMC             : No warppoints\nFormat settings, Matrix          : Custom\nCodec ID                         : XVID\nCodec ID/Hint                    : XviD\nDuration                         : 1h 37mn\nBit rate                         : 1 950 Kbps\nWidth                            : 672 pixels\nHeight                           : 288 pixels\nDisplay aspect ratio             : 2.35:1\nFrame rate                       : 29.970 fps\nColor space                      : YUV\nChroma subsampling               : 4:2:0\nBit depth                        : 8 bits\nScan type                        : Progressive\nCompression mode                 : Lossy\nBits/(Pixel*Frame)               : 0.336\nStream size                      : 1.33 GiB (91%)\nWriting library                  : XviD 1.2.1 (UTC 2008-12-04)\n\nAudio\nID                               : 1\nFormat                           : AC-3\nFormat/Info                      : Audio Coding 3\nMode extension                   : CM (complete main)\nCodec ID                         : 2000\nDuration                         : 1h 37mn\nBit rate mode                    : Constant\nBit rate                         : 192 Kbps\nChannel(s)                       : 2 channels\nChannel positions                : Front: L R\nSampling rate                    : 48.0 KHz\nBit depth                        : 16 bits\nCompression mode                 : Lossy\nStream size                      : 134 MiB (9%)\nAlignment                        : Split accross interleaves\nInterleave, duration             : 96 ms (2.88 video frames)\nInterleave, preload duration     : 96 ms\nLanguage                         : English\n\n\nSCREENS\n\n\n","torrent":{"xt":"urn:btih:a054b5fe58e0cf36f9c7d52d6382719efcda2a0a","amp;dn":"The+Hangover+Part+II+2011+DVDRip+XviD-LTW-%5BBTARENA.org%5D.avi","amp;tr":["udp%3A%2F%2Ftracker.openbittorrent.com%3A80","udp%3A%2F%2Fopen.demonii.com%3A1337","udp%3A%2F%2Ftracker.coppersurfer.tk%3A6969","udp%3A%2F%2Fexodus.desync.com%3A6969"],"infoHash":"a054b5fe58e0cf36f9c7d52d6382719efcda2a0a","infoHashBuffer":{"type":"Buffer","data":[160,84,181,254,88,224,207,54,249,199,213,45,99,130,113,158,252,218,42,10]},"announce":[],"urlList":[]}}